# Apple ModelIO OBJ File: Arrow (1)
mtllib Arrow (1).mtl
g 
v -50 -50 0
v 0 -35.2645 13.1181
v 0 50 -1e-06
v -28.9771 -7.55688 0
v 50 -50 -2e-06
v 28.9771 -7.55688 0
v 0 -35.2645 -13.1181
v 0 -35.2645 0
vn -0.28976 0.14488 0.94607
vn 0 0.151374 0.988477
vn 0.28976 0.14488 0.94607
vn 0.28976 0.14488 -0.94607
vn 0 0.151374 -0.988477
vn -0.28976 0.14488 -0.94607
vn -0.282689 -0.959212 0
vn 0.282688 -0.959212 -0
vt 0 0
vt 0.5 0
vt 0.5 1
vt 0 1
vt 1 0
vt 1 1
usemtl material_1
f 1/1/1 2/2/2 3/3/2 4/4/1 
f 2/2/2 5/5/3 6/6/3 3/3/2 
f 5/1/4 7/2/5 3/3/5 6/4/4 
f 7/2/5 1/5/6 4/6/6 3/3/5 
f 5/5/7 2/2/7 8/6/7 7/2/7 
f 2/2/8 1/5/8 7/2/8 8/6/8 
s off
